<svg xmlns="http://www.w3.org/2000/svg" width="156" height="36" viewBox="0 0 156 36" role="img" aria-label="Add to Chrome">
  <title>Add to Chrome</title>
  <!-- Browser logo from website/dist/assets/browsers/chrome.svg. Attribution and licence: website/dist/assets/browsers/README.md. -->
  <rect width="156" height="36" rx="5" fill="#24292f"/>
  <svg x="12" y="7" width="22" height="22" xmlns="http://www.w3.org/2000/svg" viewBox="-10 -10 276 276"><linearGradient id="a" x1="145" x2="34" y1="253" y2="61" gradientUnits="userSpaceOnUse"><stop offset="0" stop-color="#1e8e3e"/><stop offset="1" stop-color="#34a853"/></linearGradient><linearGradient id="b" x1="111" x2="222" y1="254" y2="62" gradientUnits="userSpaceOnUse"><stop offset="0" stop-color="#fcc934"/><stop offset="1" stop-color="#fbbc04"/></linearGradient><linearGradient id="c" x1="17" x2="239" y1="80" y2="80" gradientUnits="userSpaceOnUse"><stop offset="0" stop-color="#d93025"/><stop offset="1" stop-color="#ea4335"/></linearGradient><circle cx="128" cy="128" r="64" fill="#fff"/><path fill="url(#a)" d="M96 183.4A63.7 63.7 0 0 1 72.6 160L17.2 64A128 128 0 0 0 128 256l55.4-96A64 64 0 0 1 96 183.4Z"/><path fill="url(#b)" d="M192 128a63.7 63.7 0 0 1-8.6 32L128 256A128 128 0 0 0 238.9 64h-111a64 64 0 0 1 64 64Z"/><circle cx="128" cy="128" r="52" fill="#1a73e8"/><path fill="url(#c)" d="M96 72.6a63.7 63.7 0 0 1 32-8.6h110.8a128 128 0 0 0-221.7 0l55.5 96A64 64 0 0 1 96 72.6Z"/></svg>
  <text x="44" y="23" fill="#ffffff" font-family="Arial, Helvetica, sans-serif" font-size="13" font-weight="600">Add to Chrome</text>
</svg>
